<?xml version="1.0" standalone="no"?>
<!DOCTYPE svg PUBLIC "-//W3C//DTD SVG 20010904//EN"
 "http://www.w3.org/TR/2001/REC-SVG-20010904/DTD/svg10.dtd">
<svg version="1.0" xmlns="http://www.w3.org/2000/svg"
 width="2037.000000pt" height="2110.000000pt" viewBox="0 0 2037.000000 2110.000000"
 preserveAspectRatio="xMidYMid meet">
<metadata>
Created by potrace 1.10, written by Peter Selinger 2001-2011
</metadata>
<g transform="translate(0.000000,2110.000000) scale(0.100000,-0.100000)"
fill="#072d69" stroke="none">
<path d="M2080 20694 c-14 -3 -70 -12 -125 -20 -55 -9 -152 -31 -215 -50
-1143 -331 -1776 -1530 -1405 -2662 219 -667 779 -1190 1460 -1362 336 -85
709 -85 1039 0 733 189 1316 771 1500 1495 50 197 60 285 60 520 1 247 -12
351 -69 559 -194 707 -758 1269 -1461 1457 -203 54 -262 61 -519 64 -132 2
-251 1 -265 -1z m534 -119 c861 -131 1540 -820 1660 -1684 21 -144 21 -398 0
-542 -126 -908 -853 -1604 -1773 -1698 -715 -74 -1428 266 -1832 873 -169 254
-270 519 -315 826 -25 172 -15 490 20 657 126 594 488 1079 1016 1361 196 105
454 187 660 211 52 6 109 13 125 15 58 8 341 -4 439 -19z"/>
<path d="M2103 20489 c-487 -57 -940 -304 -1247 -682 -407 -501 -529 -1170
-325 -1782 255 -765 972 -1284 1777 -1285 996 -1 1819 766 1881 1754 49 774
-360 1479 -1054 1817 -316 154 -689 218 -1032 178z m-324 -699 c229 -24 371
-94 476 -235 25 -33 52 -79 61 -102 l16 -41 59 78 c153 202 372 309 640 310
347 1 617 -166 765 -473 76 -159 104 -308 104 -563 l0 -184 -722 0 -721 0 6
-107 c18 -307 140 -535 341 -633 122 -61 242 -77 440 -62 170 13 293 41 451
102 56 22 104 40 108 40 4 0 6 -66 5 -147 l-3 -148 -35 -17 c-58 -29 -240 -85
-335 -105 -70 -14 -138 -18 -300 -18 -189 0 -219 2 -300 24 -226 59 -408 189
-530 379 l-47 73 -50 -73 c-65 -93 -217 -243 -290 -287 -142 -83 -294 -121
-490 -121 -140 0 -239 16 -340 53 -183 70 -314 212 -364 397 -22 82 -25 291
-5 370 70 285 320 463 736 525 92 13 451 35 588 35 l57 0 0 133 c-1 271 -59
394 -225 473 -188 90 -460 63 -783 -78 -51 -22 -94 -39 -96 -37 -1 2 -25 60
-53 129 l-52 125 55 28 c124 63 332 125 489 146 160 22 222 24 344 11z"/>
<path d="M2904 19505 c-237 -51 -395 -265 -432 -582 l-8 -73 539 0 540 0 -7
96 c-19 259 -119 446 -281 524 -98 48 -231 61 -351 35z"/>
<path d="M1840 18609 c-460 -23 -642 -94 -737 -287 -37 -75 -38 -78 -38 -192
0 -114 1 -119 35 -186 62 -121 161 -173 341 -182 328 -15 567 158 634 458 9
43 19 144 22 238 l6 162 -54 -1 c-30 -1 -124 -6 -209 -10z"/>
</g>
</svg>
